<svg width="20" height="18" viewBox="0 0 20 18" fill="none" xmlns="http://www.w3.org/2000/svg">
<path fill-rule="evenodd" clip-rule="evenodd" d="M19.5 16.5C19.5 16.9142 19.1642 17.25 18.75 17.25H0.75C0.335786 17.25 0 16.9142 0 16.5C0 16.0858 0.335786 15.75 0.75 15.75H1.5V9.75C1.5 9.33579 1.83579 9 2.25 9H4.5C4.91421 9 5.25 9.33579 5.25 9.75V15.75H6.75V5.25C6.75 4.83579 7.08579 4.5 7.5 4.5H10.5C10.9142 4.5 11.25 4.83579 11.25 5.25V15.75H12.75V0.75C12.75 0.335786 13.0858 0 13.5 0H17.25C17.6642 0 18 0.335786 18 0.75V15.75H18.75C19.1642 15.75 19.5 16.0858 19.5 16.5V16.5Z" fill="#121417"/>
</svg>
