<svg width="29" height="29" viewBox="0 0 29 29" fill="none" xmlns="http://www.w3.org/2000/svg">
<path d="M20.4966 19.6404C17.0365 21.7255 11.4283 21.7255 7.97134 19.6404M25.1936 9.80149L16.8439 3.31312C16.1112 2.7436 15.2093 2.43439 14.2809 2.43439C13.3526 2.43439 12.4507 2.7436 11.718 3.31312L3.36673 9.80149C2.86528 10.1918 2.45954 10.6913 2.18037 11.2618C1.90119 11.8324 1.75594 12.4591 1.75566 13.0942V24.3565C1.75566 25.1862 2.08557 25.982 2.6728 26.5687C3.26004 27.1554 4.0565 27.485 4.88698 27.485H23.6749C24.5054 27.485 25.3019 27.1554 25.8891 26.5687C26.4763 25.982 26.8062 25.1862 26.8062 24.3565V13.0942C26.8062 11.8068 26.2113 10.5914 25.1936 9.80149Z" stroke="#E8EFF2" stroke-width="3" stroke-linecap="round" stroke-linejoin="round"/>
</svg>
