<svg width="20" height="18" viewBox="0 0 20 18" fill="none" xmlns="http://www.w3.org/2000/svg">
<path fill-rule="evenodd" clip-rule="evenodd" d="M5 6.75C5 6.33579 5.33579 6 5.75 6H14.75C15.1642 6 15.5 6.33579 15.5 6.75C15.5 7.16421 15.1642 7.5 14.75 7.5H5.75C5.33579 7.5 5 7.16421 5 6.75V6.75ZM5.75 10.5H14.75C15.1642 10.5 15.5 10.1642 15.5 9.75C15.5 9.33579 15.1642 9 14.75 9H5.75C5.33579 9 5 9.33579 5 9.75C5 10.1642 5.33579 10.5 5.75 10.5V10.5ZM20 2.25V16.5C19.9999 16.7599 19.8652 17.0012 19.644 17.1378C19.4229 17.2743 19.1468 17.2866 18.9144 17.1703L16.25 15.8381L13.5856 17.1703C13.3744 17.276 13.1256 17.276 12.9144 17.1703L10.25 15.8381L7.58562 17.1703C7.37436 17.276 7.12564 17.276 6.91438 17.1703L4.25 15.8381L1.58562 17.1703C1.3532 17.2866 1.07712 17.2743 0.855974 17.1378C0.634828 17.0012 0.500139 16.7599 0.5 16.5V2.25C0.5 1.42157 1.17157 0.75 2 0.75H18.5C19.3284 0.75 20 1.42157 20 2.25V2.25ZM18.5 2.25H2V15.2869L3.91437 14.3288C4.12564 14.223 4.37436 14.223 4.58563 14.3288L7.25 15.6619L9.91438 14.3288C10.1256 14.223 10.3744 14.223 10.5856 14.3288L13.25 15.6619L15.9144 14.3288C16.1256 14.223 16.3744 14.223 16.5856 14.3288L18.5 15.2869V2.25Z" fill="#637887"/>
</svg>
