<svg width="21" height="20" viewBox="0 0 21 20" fill="none" xmlns="http://www.w3.org/2000/svg">
<path fill-rule="evenodd" clip-rule="evenodd" d="M10.25 5.5C7.76472 5.5 5.75 7.51472 5.75 10C5.75 12.4853 7.76472 14.5 10.25 14.5C12.7353 14.5 14.75 12.4853 14.75 10C14.7474 7.51579 12.7342 5.50258 10.25 5.5V5.5ZM10.25 13C8.59315 13 7.25 11.6569 7.25 10C7.25 8.34315 8.59315 7 10.25 7C11.9069 7 13.25 8.34315 13.25 10C13.25 11.6569 11.9069 13 10.25 13V13ZM18.5 10.2025C18.5037 10.0675 18.5037 9.9325 18.5 9.7975L19.8988 8.05C20.0475 7.86393 20.099 7.61827 20.0375 7.38813C19.8082 6.52619 19.4652 5.69861 19.0175 4.92719C18.8986 4.72249 18.6901 4.58592 18.455 4.55875L16.2313 4.31125C16.1388 4.21375 16.045 4.12 15.95 4.03L15.6875 1.80063C15.6601 1.56531 15.5232 1.35677 15.3181 1.23813C14.5464 0.791263 13.7189 0.448595 12.8572 0.219063C12.6269 0.157836 12.3812 0.209687 12.1953 0.35875L10.4525 1.75C10.3175 1.75 10.1825 1.75 10.0475 1.75L8.3 0.354063C8.11393 0.205326 7.86827 0.153827 7.63813 0.215312C6.77633 0.445025 5.9488 0.788016 5.17719 1.23531C4.97249 1.35417 4.83592 1.56268 4.80875 1.79781L4.56125 4.02531C4.46375 4.11844 4.37 4.21219 4.28 4.30656L2.05063 4.5625C1.81531 4.58988 1.60677 4.72682 1.48813 4.93188C1.04126 5.70359 0.698595 6.5311 0.469063 7.39281C0.407836 7.6231 0.459687 7.86878 0.60875 8.05469L2 9.7975C2 9.9325 2 10.0675 2 10.2025L0.604063 11.95C0.455326 12.1361 0.403827 12.3817 0.465312 12.6119C0.694615 13.4738 1.03763 14.3014 1.48531 15.0728C1.60417 15.2775 1.81268 15.4141 2.04781 15.4412L4.27156 15.6887C4.36469 15.7862 4.45844 15.88 4.55281 15.97L4.8125 18.1994C4.83988 18.4347 4.97682 18.6432 5.18188 18.7619C5.95359 19.2087 6.7811 19.5514 7.64281 19.7809C7.8731 19.8422 8.11878 19.7903 8.30469 19.6413L10.0475 18.25C10.1825 18.2537 10.3175 18.2537 10.4525 18.25L12.2 19.6488C12.3861 19.7975 12.6317 19.849 12.8619 19.7875C13.7238 19.5582 14.5514 19.2152 15.3228 18.7675C15.5275 18.6486 15.6641 18.4401 15.6912 18.205L15.9387 15.9813C16.0362 15.8888 16.13 15.795 16.22 15.7L18.4494 15.4375C18.6847 15.4101 18.8932 15.2732 19.0119 15.0681C19.4587 14.2964 19.8014 13.4689 20.0309 12.6072C20.0922 12.3769 20.0403 12.1312 19.8913 11.9453L18.5 10.2025ZM16.9906 9.59313C17.0066 9.86414 17.0066 10.1359 16.9906 10.4069C16.9795 10.5924 17.0376 10.7755 17.1537 10.9206L18.4841 12.5828C18.3314 13.0679 18.136 13.5385 17.9 13.9891L15.7812 14.2291C15.5967 14.2495 15.4264 14.3377 15.3031 14.4766C15.1227 14.6795 14.9305 14.8717 14.7275 15.0522C14.5887 15.1754 14.5005 15.3458 14.48 15.5303L14.2447 17.6472C13.7942 17.8833 13.3236 18.0787 12.8384 18.2313L11.1753 16.9009C11.0422 16.7946 10.8769 16.7367 10.7066 16.7369H10.6616C10.3905 16.7528 10.1188 16.7528 9.84781 16.7369C9.66226 16.7257 9.47918 16.7838 9.33406 16.9L7.66719 18.2313C7.18206 18.0786 6.71146 17.8831 6.26094 17.6472L6.02094 15.5312C6.00046 15.3467 5.91227 15.1764 5.77344 15.0531C5.57048 14.8727 5.37827 14.6805 5.19781 14.4775C5.07456 14.3387 4.9042 14.2505 4.71969 14.23L2.60281 13.9937C2.36674 13.5433 2.17128 13.0727 2.01875 12.5875L3.34906 10.9244C3.46522 10.7793 3.52336 10.5962 3.51219 10.4106C3.49625 10.1396 3.49625 9.86789 3.51219 9.59688C3.52336 9.41133 3.46522 9.22824 3.34906 9.08313L2.01875 7.41719C2.1714 6.93206 2.36685 6.46146 2.60281 6.01094L4.71875 5.77094C4.90326 5.75046 5.07362 5.66227 5.19688 5.52344C5.37733 5.32048 5.56954 5.12827 5.7725 4.94781C5.91188 4.82448 6.00043 4.65373 6.02094 4.46875L6.25625 2.35281C6.70672 2.11674 7.17733 1.92128 7.6625 1.76875L9.32563 3.09906C9.47074 3.21522 9.65383 3.27336 9.83937 3.26219C10.1104 3.24625 10.3821 3.24625 10.6531 3.26219C10.8387 3.27336 11.0218 3.21522 11.1669 3.09906L12.8328 1.76875C13.3179 1.9214 13.7885 2.11685 14.2391 2.35281L14.4791 4.46875C14.4995 4.65326 14.5877 4.82362 14.7266 4.94688C14.9295 5.12733 15.1217 5.31954 15.3022 5.5225C15.4254 5.66133 15.5958 5.74952 15.7803 5.77L17.8972 6.00531C18.1333 6.45578 18.3287 6.9264 18.4813 7.41156L17.1509 9.07469C17.0337 9.22103 16.9755 9.406 16.9878 9.59313H16.9906Z" fill="#637887"/>
</svg>
